<mxfile host="Electron" modified="2025-04-18T17:14:48.385Z" agent="Mozilla/5.0 (Windows NT 10.0; Win64; x64) AppleWebKit/537.36 (KHTML, like Gecko) draw.io/24.6.4 Chrome/124.0.6367.207 Electron/30.0.6 Safari/537.36" etag="FHORcOs_-qmkU4OVaxty" version="24.6.4" type="device">
  <diagram name="Page-1" id="Rb52TVo1T57p_gBPtRtJ">
    <mxGraphModel dx="1434" dy="956" grid="1" gridSize="10" guides="1" tooltips="1" connect="1" arrows="1" fold="1" page="1" pageScale="1" pageWidth="1100" pageHeight="850" math="0" shadow="0">
      <root>
        <mxCell id="0" />
        <mxCell id="1" parent="0" />
        <mxCell id="dAo7qv6oXnuqjJGjuUrJ-58" value="" style="rounded=0;whiteSpace=wrap;html=1;movable=1;resizable=1;rotatable=1;deletable=1;editable=1;locked=0;connectable=1;" vertex="1" parent="1">
          <mxGeometry x="40" y="300" width="1000" height="100" as="geometry" />
        </mxCell>
        <mxCell id="dAo7qv6oXnuqjJGjuUrJ-59" value="" style="rounded=0;whiteSpace=wrap;html=1;movable=1;resizable=1;rotatable=1;deletable=1;editable=1;locked=0;connectable=1;" vertex="1" parent="1">
          <mxGeometry x="40" y="140" width="1000" height="100" as="geometry" />
        </mxCell>
        <mxCell id="dAo7qv6oXnuqjJGjuUrJ-56" value="" style="rounded=0;whiteSpace=wrap;html=1;movable=1;resizable=1;rotatable=1;deletable=1;editable=1;locked=0;connectable=1;" vertex="1" parent="1">
          <mxGeometry x="40" y="620" width="1000" height="100" as="geometry" />
        </mxCell>
        <mxCell id="dAo7qv6oXnuqjJGjuUrJ-26" value="" style="rounded=0;whiteSpace=wrap;html=1;movable=1;resizable=1;rotatable=1;deletable=1;editable=1;locked=0;connectable=1;" vertex="1" parent="1">
          <mxGeometry x="40" y="460" width="1000" height="100" as="geometry" />
        </mxCell>
        <mxCell id="dAo7qv6oXnuqjJGjuUrJ-16" style="edgeStyle=orthogonalEdgeStyle;rounded=0;orthogonalLoop=1;jettySize=auto;html=1;exitX=0.5;exitY=1;exitDx=0;exitDy=0;entryX=0.5;entryY=0;entryDx=0;entryDy=0;" edge="1" parent="1" source="dAo7qv6oXnuqjJGjuUrJ-1" target="dAo7qv6oXnuqjJGjuUrJ-4">
          <mxGeometry relative="1" as="geometry" />
        </mxCell>
        <mxCell id="dAo7qv6oXnuqjJGjuUrJ-17" style="edgeStyle=orthogonalEdgeStyle;rounded=0;orthogonalLoop=1;jettySize=auto;html=1;exitX=1;exitY=0.5;exitDx=0;exitDy=0;entryX=0;entryY=0.5;entryDx=0;entryDy=0;" edge="1" parent="1" source="dAo7qv6oXnuqjJGjuUrJ-1" target="dAo7qv6oXnuqjJGjuUrJ-2">
          <mxGeometry relative="1" as="geometry" />
        </mxCell>
        <mxCell id="dAo7qv6oXnuqjJGjuUrJ-1" value="Pre-launch Init" style="rounded=1;whiteSpace=wrap;html=1;fillColor=#ffe6cc;strokeColor=#d79b00;" vertex="1" parent="1">
          <mxGeometry x="80" y="160" width="120" height="40" as="geometry" />
        </mxCell>
        <mxCell id="dAo7qv6oXnuqjJGjuUrJ-18" style="rounded=0;orthogonalLoop=1;jettySize=auto;html=1;exitX=0.25;exitY=1;exitDx=0;exitDy=0;entryX=0.75;entryY=0;entryDx=0;entryDy=0;" edge="1" parent="1" source="dAo7qv6oXnuqjJGjuUrJ-2" target="dAo7qv6oXnuqjJGjuUrJ-5">
          <mxGeometry relative="1" as="geometry" />
        </mxCell>
        <mxCell id="dAo7qv6oXnuqjJGjuUrJ-19" style="rounded=0;orthogonalLoop=1;jettySize=auto;html=1;exitX=0.5;exitY=1;exitDx=0;exitDy=0;entryX=0.5;entryY=0;entryDx=0;entryDy=0;" edge="1" parent="1" source="dAo7qv6oXnuqjJGjuUrJ-2" target="dAo7qv6oXnuqjJGjuUrJ-6">
          <mxGeometry relative="1" as="geometry" />
        </mxCell>
        <mxCell id="dAo7qv6oXnuqjJGjuUrJ-20" style="rounded=0;orthogonalLoop=1;jettySize=auto;html=1;exitX=0.75;exitY=1;exitDx=0;exitDy=0;entryX=0.25;entryY=0;entryDx=0;entryDy=0;" edge="1" parent="1" source="dAo7qv6oXnuqjJGjuUrJ-2" target="dAo7qv6oXnuqjJGjuUrJ-8">
          <mxGeometry relative="1" as="geometry" />
        </mxCell>
        <mxCell id="dAo7qv6oXnuqjJGjuUrJ-2" value="Actor Core" style="rounded=1;whiteSpace=wrap;html=1;fillColor=#ffe6cc;strokeColor=#d79b00;" vertex="1" parent="1">
          <mxGeometry x="480" y="160" width="120" height="40" as="geometry" />
        </mxCell>
        <mxCell id="dAo7qv6oXnuqjJGjuUrJ-13" style="edgeStyle=orthogonalEdgeStyle;rounded=0;orthogonalLoop=1;jettySize=auto;html=1;exitX=0.5;exitY=1;exitDx=0;exitDy=0;entryX=0.5;entryY=0;entryDx=0;entryDy=0;" edge="1" parent="1" source="dAo7qv6oXnuqjJGjuUrJ-3" target="dAo7qv6oXnuqjJGjuUrJ-7">
          <mxGeometry relative="1" as="geometry" />
        </mxCell>
        <mxCell id="dAo7qv6oXnuqjJGjuUrJ-3" value="Stop Core" style="rounded=1;whiteSpace=wrap;html=1;fillColor=#ffe6cc;strokeColor=#d79b00;" vertex="1" parent="1">
          <mxGeometry x="880" y="160" width="120" height="40" as="geometry" />
        </mxCell>
        <mxCell id="dAo7qv6oXnuqjJGjuUrJ-37" style="edgeStyle=orthogonalEdgeStyle;rounded=0;orthogonalLoop=1;jettySize=auto;html=1;exitX=0.5;exitY=1;exitDx=0;exitDy=0;entryX=0.5;entryY=0;entryDx=0;entryDy=0;dashed=1;dashPattern=8 8;" edge="1" parent="1" source="dAo7qv6oXnuqjJGjuUrJ-4" target="dAo7qv6oXnuqjJGjuUrJ-28">
          <mxGeometry relative="1" as="geometry" />
        </mxCell>
        <mxCell id="dAo7qv6oXnuqjJGjuUrJ-4" value="Task Init" style="rounded=1;whiteSpace=wrap;html=1;fillColor=#dae8fc;strokeColor=#6c8ebf;" vertex="1" parent="1">
          <mxGeometry x="80" y="320" width="120" height="40" as="geometry" />
        </mxCell>
        <mxCell id="dAo7qv6oXnuqjJGjuUrJ-38" style="edgeStyle=orthogonalEdgeStyle;rounded=0;orthogonalLoop=1;jettySize=auto;html=1;exitX=0.5;exitY=1;exitDx=0;exitDy=0;entryX=0.5;entryY=0;entryDx=0;entryDy=0;dashed=1;dashPattern=8 8;" edge="1" parent="1" source="dAo7qv6oXnuqjJGjuUrJ-5" target="dAo7qv6oXnuqjJGjuUrJ-29">
          <mxGeometry relative="1" as="geometry" />
        </mxCell>
        <mxCell id="dAo7qv6oXnuqjJGjuUrJ-5" value="Task Start" style="rounded=1;whiteSpace=wrap;html=1;fillColor=#dae8fc;strokeColor=#6c8ebf;" vertex="1" parent="1">
          <mxGeometry x="280" y="320" width="120" height="40" as="geometry" />
        </mxCell>
        <mxCell id="dAo7qv6oXnuqjJGjuUrJ-39" style="edgeStyle=orthogonalEdgeStyle;rounded=0;orthogonalLoop=1;jettySize=auto;html=1;exitX=0.5;exitY=1;exitDx=0;exitDy=0;entryX=0.5;entryY=0;entryDx=0;entryDy=0;dashed=1;dashPattern=8 8;" edge="1" parent="1" source="dAo7qv6oXnuqjJGjuUrJ-6" target="dAo7qv6oXnuqjJGjuUrJ-32">
          <mxGeometry relative="1" as="geometry" />
        </mxCell>
        <mxCell id="dAo7qv6oXnuqjJGjuUrJ-6" value="Task Loop" style="rounded=1;whiteSpace=wrap;html=1;fillColor=#dae8fc;strokeColor=#6c8ebf;" vertex="1" parent="1">
          <mxGeometry x="480" y="320" width="120" height="40" as="geometry" />
        </mxCell>
        <mxCell id="dAo7qv6oXnuqjJGjuUrJ-12" style="rounded=0;orthogonalLoop=1;jettySize=auto;html=1;exitX=0;exitY=1;exitDx=0;exitDy=0;entryX=1;entryY=1;entryDx=0;entryDy=0;curved=1;dashed=1;" edge="1" parent="1" source="dAo7qv6oXnuqjJGjuUrJ-7" target="dAo7qv6oXnuqjJGjuUrJ-6">
          <mxGeometry relative="1" as="geometry">
            <Array as="points">
              <mxPoint x="740" y="420" />
            </Array>
          </mxGeometry>
        </mxCell>
        <mxCell id="dAo7qv6oXnuqjJGjuUrJ-41" style="edgeStyle=orthogonalEdgeStyle;rounded=0;orthogonalLoop=1;jettySize=auto;html=1;exitX=0.5;exitY=1;exitDx=0;exitDy=0;entryX=0.5;entryY=0;entryDx=0;entryDy=0;dashed=1;dashPattern=8 8;" edge="1" parent="1" source="dAo7qv6oXnuqjJGjuUrJ-7" target="dAo7qv6oXnuqjJGjuUrJ-36">
          <mxGeometry relative="1" as="geometry" />
        </mxCell>
        <mxCell id="dAo7qv6oXnuqjJGjuUrJ-7" value="Task Stop" style="rounded=1;whiteSpace=wrap;html=1;fillColor=#dae8fc;strokeColor=#6c8ebf;" vertex="1" parent="1">
          <mxGeometry x="880" y="320" width="120" height="40" as="geometry" />
        </mxCell>
        <mxCell id="dAo7qv6oXnuqjJGjuUrJ-40" style="edgeStyle=orthogonalEdgeStyle;rounded=0;orthogonalLoop=1;jettySize=auto;html=1;exitX=0.5;exitY=1;exitDx=0;exitDy=0;entryX=0.5;entryY=0;entryDx=0;entryDy=0;dashed=1;dashPattern=8 8;" edge="1" parent="1" source="dAo7qv6oXnuqjJGjuUrJ-8" target="dAo7qv6oXnuqjJGjuUrJ-35">
          <mxGeometry relative="1" as="geometry" />
        </mxCell>
        <mxCell id="dAo7qv6oXnuqjJGjuUrJ-8" value="Task Uninit" style="rounded=1;whiteSpace=wrap;html=1;fillColor=#dae8fc;strokeColor=#6c8ebf;" vertex="1" parent="1">
          <mxGeometry x="680" y="320" width="120" height="40" as="geometry" />
        </mxCell>
        <mxCell id="dAo7qv6oXnuqjJGjuUrJ-10" style="rounded=0;orthogonalLoop=1;jettySize=auto;html=1;exitX=0.5;exitY=1;exitDx=0;exitDy=0;entryX=0.5;entryY=0;entryDx=0;entryDy=0;" edge="1" parent="1" source="dAo7qv6oXnuqjJGjuUrJ-9" target="dAo7qv6oXnuqjJGjuUrJ-3">
          <mxGeometry relative="1" as="geometry" />
        </mxCell>
        <mxCell id="dAo7qv6oXnuqjJGjuUrJ-9" value="" style="ellipse;whiteSpace=wrap;html=1;aspect=fixed;fillColor=#f5f5f5;fontColor=#333333;strokeColor=#666666;" vertex="1" parent="1">
          <mxGeometry x="920" y="40" width="40" height="40" as="geometry" />
        </mxCell>
        <mxCell id="dAo7qv6oXnuqjJGjuUrJ-15" style="edgeStyle=orthogonalEdgeStyle;rounded=0;orthogonalLoop=1;jettySize=auto;html=1;exitX=0.5;exitY=1;exitDx=0;exitDy=0;entryX=0.5;entryY=0;entryDx=0;entryDy=0;" edge="1" parent="1" source="dAo7qv6oXnuqjJGjuUrJ-14" target="dAo7qv6oXnuqjJGjuUrJ-1">
          <mxGeometry relative="1" as="geometry" />
        </mxCell>
        <mxCell id="dAo7qv6oXnuqjJGjuUrJ-14" value="" style="ellipse;whiteSpace=wrap;html=1;aspect=fixed;fillColor=#d5e8d4;strokeColor=#82b366;" vertex="1" parent="1">
          <mxGeometry x="120" y="40" width="40" height="40" as="geometry" />
        </mxCell>
        <mxCell id="dAo7qv6oXnuqjJGjuUrJ-27" value="VolatusCoreTask" style="text;html=1;align=center;verticalAlign=middle;resizable=0;points=[];autosize=1;strokeColor=none;fillColor=none;" vertex="1" parent="1">
          <mxGeometry x="40" y="530" width="110" height="30" as="geometry" />
        </mxCell>
        <mxCell id="dAo7qv6oXnuqjJGjuUrJ-28" value="Task Init" style="rounded=1;whiteSpace=wrap;html=1;fillColor=#f8cecc;strokeColor=#b85450;" vertex="1" parent="1">
          <mxGeometry x="80" y="480" width="120" height="40" as="geometry" />
        </mxCell>
        <mxCell id="dAo7qv6oXnuqjJGjuUrJ-50" style="edgeStyle=orthogonalEdgeStyle;rounded=0;orthogonalLoop=1;jettySize=auto;html=1;exitX=0.5;exitY=1;exitDx=0;exitDy=0;entryX=0.5;entryY=0;entryDx=0;entryDy=0;" edge="1" parent="1" source="dAo7qv6oXnuqjJGjuUrJ-29" target="dAo7qv6oXnuqjJGjuUrJ-43">
          <mxGeometry relative="1" as="geometry" />
        </mxCell>
        <mxCell id="dAo7qv6oXnuqjJGjuUrJ-52" style="rounded=0;orthogonalLoop=1;jettySize=auto;html=1;exitX=0.25;exitY=1;exitDx=0;exitDy=0;entryX=1;entryY=0;entryDx=0;entryDy=0;" edge="1" parent="1" source="dAo7qv6oXnuqjJGjuUrJ-29" target="dAo7qv6oXnuqjJGjuUrJ-42">
          <mxGeometry relative="1" as="geometry" />
        </mxCell>
        <mxCell id="dAo7qv6oXnuqjJGjuUrJ-29" value="Task Start" style="rounded=1;whiteSpace=wrap;html=1;fillColor=#f8cecc;strokeColor=#b85450;" vertex="1" parent="1">
          <mxGeometry x="280" y="480" width="120" height="40" as="geometry" />
        </mxCell>
        <mxCell id="dAo7qv6oXnuqjJGjuUrJ-49" style="edgeStyle=orthogonalEdgeStyle;rounded=0;orthogonalLoop=1;jettySize=auto;html=1;exitX=0.5;exitY=1;exitDx=0;exitDy=0;entryX=0.5;entryY=0;entryDx=0;entryDy=0;" edge="1" parent="1" source="dAo7qv6oXnuqjJGjuUrJ-32" target="dAo7qv6oXnuqjJGjuUrJ-44">
          <mxGeometry relative="1" as="geometry" />
        </mxCell>
        <mxCell id="dAo7qv6oXnuqjJGjuUrJ-32" value="Task Loop" style="rounded=1;whiteSpace=wrap;html=1;fillColor=#f8cecc;strokeColor=#b85450;" vertex="1" parent="1">
          <mxGeometry x="480" y="480" width="120" height="40" as="geometry" />
        </mxCell>
        <mxCell id="dAo7qv6oXnuqjJGjuUrJ-48" style="edgeStyle=orthogonalEdgeStyle;rounded=0;orthogonalLoop=1;jettySize=auto;html=1;exitX=0.5;exitY=1;exitDx=0;exitDy=0;entryX=0.5;entryY=0;entryDx=0;entryDy=0;" edge="1" parent="1" source="dAo7qv6oXnuqjJGjuUrJ-35" target="dAo7qv6oXnuqjJGjuUrJ-45">
          <mxGeometry relative="1" as="geometry" />
        </mxCell>
        <mxCell id="dAo7qv6oXnuqjJGjuUrJ-35" value="Task Uninit" style="rounded=1;whiteSpace=wrap;html=1;fillColor=#f8cecc;strokeColor=#b85450;" vertex="1" parent="1">
          <mxGeometry x="680" y="480" width="120" height="40" as="geometry" />
        </mxCell>
        <mxCell id="dAo7qv6oXnuqjJGjuUrJ-47" style="edgeStyle=orthogonalEdgeStyle;rounded=0;orthogonalLoop=1;jettySize=auto;html=1;exitX=0.5;exitY=1;exitDx=0;exitDy=0;entryX=0.5;entryY=0;entryDx=0;entryDy=0;" edge="1" parent="1" source="dAo7qv6oXnuqjJGjuUrJ-36" target="dAo7qv6oXnuqjJGjuUrJ-46">
          <mxGeometry relative="1" as="geometry" />
        </mxCell>
        <mxCell id="dAo7qv6oXnuqjJGjuUrJ-53" style="rounded=0;orthogonalLoop=1;jettySize=auto;html=1;exitX=0;exitY=1;exitDx=0;exitDy=0;entryX=1;entryY=1;entryDx=0;entryDy=0;curved=1;dashed=1;" edge="1" parent="1" source="dAo7qv6oXnuqjJGjuUrJ-36" target="dAo7qv6oXnuqjJGjuUrJ-32">
          <mxGeometry relative="1" as="geometry">
            <Array as="points">
              <mxPoint x="740" y="580" />
            </Array>
          </mxGeometry>
        </mxCell>
        <mxCell id="dAo7qv6oXnuqjJGjuUrJ-36" value="Task Stop" style="rounded=1;whiteSpace=wrap;html=1;fillColor=#f8cecc;strokeColor=#b85450;" vertex="1" parent="1">
          <mxGeometry x="880" y="480" width="120" height="40" as="geometry" />
        </mxCell>
        <mxCell id="dAo7qv6oXnuqjJGjuUrJ-42" value="App Init" style="rounded=1;whiteSpace=wrap;html=1;fillColor=#fff2cc;strokeColor=#d6b656;" vertex="1" parent="1">
          <mxGeometry x="80" y="640" width="120" height="40" as="geometry" />
        </mxCell>
        <mxCell id="dAo7qv6oXnuqjJGjuUrJ-43" value="App Start" style="rounded=1;whiteSpace=wrap;html=1;fillColor=#fff2cc;strokeColor=#d6b656;" vertex="1" parent="1">
          <mxGeometry x="280" y="640" width="120" height="40" as="geometry" />
        </mxCell>
        <mxCell id="dAo7qv6oXnuqjJGjuUrJ-44" value="App Run" style="rounded=1;whiteSpace=wrap;html=1;fillColor=#fff2cc;strokeColor=#d6b656;" vertex="1" parent="1">
          <mxGeometry x="480" y="640" width="120" height="40" as="geometry" />
        </mxCell>
        <mxCell id="dAo7qv6oXnuqjJGjuUrJ-45" value="App Uninit" style="rounded=1;whiteSpace=wrap;html=1;fillColor=#fff2cc;strokeColor=#d6b656;" vertex="1" parent="1">
          <mxGeometry x="680" y="640" width="120" height="40" as="geometry" />
        </mxCell>
        <mxCell id="dAo7qv6oXnuqjJGjuUrJ-54" style="rounded=0;orthogonalLoop=1;jettySize=auto;html=1;exitX=0;exitY=1;exitDx=0;exitDy=0;entryX=1;entryY=1;entryDx=0;entryDy=0;dashed=1;curved=1;" edge="1" parent="1" source="dAo7qv6oXnuqjJGjuUrJ-46" target="dAo7qv6oXnuqjJGjuUrJ-44">
          <mxGeometry relative="1" as="geometry">
            <Array as="points">
              <mxPoint x="740" y="740" />
            </Array>
          </mxGeometry>
        </mxCell>
        <mxCell id="dAo7qv6oXnuqjJGjuUrJ-46" value="App Stop" style="rounded=1;whiteSpace=wrap;html=1;fillColor=#fff2cc;strokeColor=#d6b656;" vertex="1" parent="1">
          <mxGeometry x="880" y="640" width="120" height="40" as="geometry" />
        </mxCell>
        <mxCell id="dAo7qv6oXnuqjJGjuUrJ-57" value="App" style="text;html=1;align=center;verticalAlign=middle;resizable=0;points=[];autosize=1;strokeColor=none;fillColor=none;" vertex="1" parent="1">
          <mxGeometry x="40" y="690" width="40" height="30" as="geometry" />
        </mxCell>
        <mxCell id="dAo7qv6oXnuqjJGjuUrJ-60" value="Actor" style="text;html=1;align=center;verticalAlign=middle;resizable=0;points=[];autosize=1;strokeColor=none;fillColor=none;" vertex="1" parent="1">
          <mxGeometry x="40" y="210" width="50" height="30" as="geometry" />
        </mxCell>
        <mxCell id="dAo7qv6oXnuqjJGjuUrJ-61" value="Task" style="text;html=1;align=center;verticalAlign=middle;resizable=0;points=[];autosize=1;strokeColor=none;fillColor=none;" vertex="1" parent="1">
          <mxGeometry x="40" y="370" width="50" height="30" as="geometry" />
        </mxCell>
      </root>
    </mxGraphModel>
  </diagram>
</mxfile>
